<svg xmlns="http://www.w3.org/2000/svg" xmlns:xlink="http://www.w3.org/1999/xlink" width="487.078" height="163.219" viewBox="0 0 487.078 163.219"><defs><filter id="a" x="90.426" y="50.072" width="341.374" height="74.21" filterUnits="userSpaceOnUse"><feOffset dy="3" input="SourceAlpha"/><feGaussianBlur stdDeviation="3" result="b"/><feFlood flood-opacity="0.918"/><feComposite operator="in" in2="b"/><feComposite in="SourceGraphic"/></filter><filter id="c" x="303.345" y="100.246" width="39" height="48" filterUnits="userSpaceOnUse"><feOffset dy="3" input="SourceAlpha"/><feGaussianBlur stdDeviation="3" result="d"/><feFlood/><feComposite operator="in" in2="d"/><feComposite in="SourceGraphic"/></filter><filter id="e" x="344.545" y="37.246" width="39" height="48" filterUnits="userSpaceOnUse"><feOffset dy="3" input="SourceAlpha"/><feGaussianBlur stdDeviation="3" result="f"/><feFlood flood-opacity="0.949"/><feComposite operator="in" in2="f"/><feComposite in="SourceGraphic"/></filter><filter id="g" x="247.745" y="26.246" width="39" height="48" filterUnits="userSpaceOnUse"><feOffset dy="3" input="SourceAlpha"/><feGaussianBlur stdDeviation="3" result="h"/><feFlood/><feComposite operator="in" in2="h"/><feComposite in="SourceGraphic"/></filter><filter id="i" x="173.945" y="0.246" width="39" height="48" filterUnits="userSpaceOnUse"><feOffset dy="3" input="SourceAlpha"/><feGaussianBlur stdDeviation="3" result="j"/><feFlood flood-opacity="0.973"/><feComposite operator="in" in2="j"/><feComposite in="SourceGraphic"/></filter><filter id="k" x="220.345" y="94.246" width="45" height="46.5" filterUnits="userSpaceOnUse"><feOffset dy="3" input="SourceAlpha"/><feGaussianBlur stdDeviation="3" result="l"/><feFlood/><feComposite operator="in" in2="l"/><feComposite in="SourceGraphic"/></filter></defs><g transform="translate(-150.155 -257.754)"><g transform="translate(142 177)" fill="#158aff"><path d="M 196.9681243896484 243.3577575683594 L 219.87353515625 189.3699188232422 C 227.9684753417969 193.0488891601562 236.4572906494141 196.4219360351562 245.1123809814453 199.3981781005859 C 253.4991607666016 202.2822570800781 262.2644348144531 204.8702545166016 271.1646728515625 207.0903930664062 L 271.3210144042969 207.12939453125 L 271.4706726074219 207.06982421875 L 304.5445556640625 193.8980865478516 C 359.3545227050781 198.2923889160156 419.7044372558594 203.3703765869141 455.2220458984375 207.9459533691406 L 397.6399536132812 215.8415832519531 C 387.8555908203125 216.235107421875 377.1809997558594 216.6593933105469 365.9107360839844 217.1027526855469 L 365.929443359375 218.1024017333984 C 366.2188110351562 218.1029663085938 366.5003051757812 218.1031799316406 366.7890930175781 218.1031799316406 C 366.7923583984375 218.1031799316406 366.7970581054688 218.1031799316406 366.8003234863281 218.1031799316406 C 372.1827697753906 218.1031799316406 377.658203125 218.0101013183594 383.1716003417969 217.8255004882812 L 196.9681243896484 243.3577575683594 Z M 425.2888488769531 214.7139892578125 C 437.8569946289062 213.2946166992188 450.5174865722656 211.4319458007812 463.599853515625 209.0827331542969 C 471.1126708984375 210.1616058349609 476.9755249023438 211.1926879882812 481.0885925292969 212.1574401855469 C 475.635498046875 212.5137786865234 460.6836547851562 213.2463531494141 425.2888488769531 214.7139892578125 Z M 152.9205780029297 212.9551849365234 C 152.8092193603516 212.9551849365234 152.7793579101562 212.9253082275391 152.7695159912109 212.9154663085938 C 152.7127380371094 212.8588256835938 152.6520233154297 212.6844024658203 152.6520233154297 212.3650360107422 L 152.6520233154297 212.1584625244141 L 152.5062255859375 212.0121765136719 L 130.7094421386719 190.1324005126953 L 130.5200805664062 189.9423217773438 L 130.2570190429688 189.9949645996094 L 54.51576995849609 205.1622009277344 L 89.22257232666016 176.2201080322266 C 97.97388458251953 177.0539093017578 107.7368240356445 177.9451599121094 118.2435150146484 178.8694610595703 L 119.6089477539062 178.9896087646484 L 118.6415176391602 178.0185394287109 L 106.1583709716797 165.4878234863281 L 106.0173034667969 165.3461761474609 L 105.8174438476562 165.3408966064453 L 102.378288269043 165.24951171875 L 103.8938751220703 163.9856872558594 L 104.3133773803711 163.6358184814453 L 103.9278717041016 163.2488250732422 L 46.53269195556641 105.6351699829102 C 54.87867736816406 109.0995559692383 85.60606384277344 122.1529693603516 117.8834457397461 135.8648986816406 L 130.6751556396484 141.298828125 L 130.956298828125 141.4182586669922 L 131.1908721923828 141.2226867675781 L 140.7851409912109 133.2219848632812 C 148.471435546875 141.3743438720703 156.7807006835938 149.0561981201172 165.4877319335938 156.0584716796875 L 165.5418701171875 156.1019744873047 L 165.6058044433594 156.1291046142578 C 176.1017913818359 160.5820465087891 185.0301818847656 164.3653411865234 192.7996826171875 167.6523284912109 L 182.3705902099609 167.3751831054688 L 180.6550903320312 167.3296051025391 L 182.0776519775391 168.2894744873047 C 184.8459014892578 170.1574401855469 187.6962738037109 171.9981689453125 190.5578765869141 173.7659454345703 C 188.9446868896484 175.6305389404297 187.5149536132812 177.2801361083984 186.2015838623047 178.7920684814453 L 169.2644500732422 182.1837463378906 L 169.322021484375 183.1723327636719 C 173.2139129638672 183.4892425537109 177.3134918212891 183.8211364746094 181.5228424072266 184.1601715087891 C 173.3148498535156 193.5394897460938 167.4154052734375 200.0400085449219 162.9963684082031 204.5754699707031 C 160.2882385253906 207.3550415039062 158.1465911865234 209.3906097412109 156.4492340087891 210.7986755371094 C 154.1886596679688 212.6739044189453 153.2686614990234 212.9546813964844 152.9213714599609 212.9551849365234 C 152.9211120605469 212.9551849365234 152.9208374023438 212.9551849365234 152.9205780029297 212.9551849365234 Z M 463.5820007324219 208.0699462890625 C 463.2745361328125 208.0259094238281 462.9629211425781 207.9815979003906 462.6477661132812 207.9370880126953 L 469.1229858398438 207.0492095947266 C 467.3721618652344 207.3791656494141 465.5220336914062 207.7210845947266 463.5820007324219 208.0699462890625 Z M 304.3916320800781 192.8826293945312 C 285.2325439453125 191.3468017578125 265.2571105957031 189.7773284912109 245.9376525878906 188.2593231201172 C 237.5774383544922 187.6024627685547 228.9325866699219 186.9232482910156 220.4790954589844 186.2566070556641 L 220.1201629638672 186.2282562255859 L 219.9795227050781 186.5597534179688 L 219.3543395996094 188.0333251953125 C 217.7816162109375 187.3113708496094 216.2110137939453 186.5721893310547 214.6785888671875 185.8327484130859 L 214.5941619873047 185.7920379638672 L 214.500732421875 185.7846832275391 C 202.6624603271484 184.8492126464844 192.8038635253906 184.0642242431641 183.5829010009766 183.3227081298828 C 184.5809173583984 182.1794128417969 185.6184997558594 180.9878845214844 186.7327117919922 179.7055358886719 L 197.2291564941406 177.6036071777344 L 198.5275115966797 177.3436126708984 L 197.3813018798828 176.6805419921875 C 195.6067657470703 175.6540222167969 193.8272705078125 174.5956726074219 192.0840301513672 173.5301055908203 C 193.4542846679688 171.9455261230469 194.8400268554688 170.3410034179688 196.232666015625 168.7281799316406 L 196.289306640625 168.6625823974609 L 196.3742370605469 168.5642547607422 L 197.8700866699219 166.8316802978516 C 202.6790313720703 161.2616271972656 207.6498260498047 155.5040893554688 212.5214233398438 149.9188079833984 C 219.5767517089844 151.6579132080078 226.5884857177734 153.3595123291016 233.3777008056641 154.9802856445312 L 227.4758758544922 168.8909606933594 L 227.1892242431641 169.5665435791016 L 227.9228668212891 169.5860443115234 L 236.1157989501953 169.8037567138672 L 236.1720886230469 169.8052520751953 L 236.227294921875 169.794189453125 L 269.0313720703125 163.2251892089844 C 276.5122375488281 164.8951721191406 283.9174194335938 166.5067596435547 291.0655212402344 168.0205841064453 C 289.8350219726562 168.8185119628906 288.683837890625 169.554443359375 287.5707397460938 170.2548217773438 L 286.1735229492188 171.1339721679688 L 287.82373046875 171.1778259277344 L 309.0931701660156 171.7430419921875 C 320.5029602050781 174.0359649658203 331.52294921875 176.1233062744141 341.8787536621094 177.9533843994141 L 304.3916320800781 192.8826293945312 Z M 437.2379150390625 187.6481170654297 C 414.8572082519531 187.6481170654297 384.0110473632812 184.2606506347656 345.526123046875 177.5771484375 L 357.0757446289062 172.9775390625 L 356.9040222167969 172.01318359375 L 309.2056579589844 170.7456817626953 C 304.1379699707031 169.7269592285156 298.9049377441406 168.64990234375 293.6308898925781 167.5401306152344 C 296.4734191894531 165.673095703125 299.3043823242188 163.7687072753906 302.282958984375 161.7650451660156 C 305.9418029785156 159.3037567138672 309.7251586914062 156.7586822509766 313.5562438964844 154.2730407714844 L 313.1858825683594 153.3633270263672 L 269.0426025390625 162.2030334472656 C 258.0534362792969 159.7488403320312 246.5236511230469 157.0848236083984 234.7602386474609 154.2819671630859 L 255.2987365722656 105.8729705810547 L 255.9185943603516 104.4119720458984 L 254.5732269287109 105.2538223266602 C 246.0490112304688 110.5879211425781 228.3791046142578 130.2268524169922 212.1688079833984 148.8019104003906 C 190.4835205078125 143.4521026611328 167.3414001464844 137.4907531738281 143.3580474853516 131.0764007568359 L 203.0087585449219 81.33351135253906 L 255.6910095214844 103.6686096191406 L 256.1512451171875 103.8636856079102 L 256.346435546875 103.4035415649414 L 258.5641784667969 98.17637634277344 L 293.9946594238281 130.7469635009766 L 294.1380920410156 130.8788909912109 L 294.3330078125 130.8788909912109 C 298.9795227050781 130.8788909912109 317.4912414550781 134.4347534179688 339.3501586914062 139.5260467529297 L 339.5167236328125 139.5648193359375 L 339.6722412109375 139.4933929443359 C 346.7003784179688 136.2654724121094 353.3946533203125 133.8878936767578 360.1375732421875 132.2247467041016 C 367.6297302246094 130.3768920898438 375.2498168945312 129.4398956298828 382.7861633300781 129.4398956298828 C 388.2043762207031 129.4398956298828 393.753662109375 129.9216156005859 399.2798767089844 130.8716888427734 C 403.4044799804688 131.5807495117188 407.6470031738281 132.4940643310547 411.9190063476562 133.5919799804688 L 360.9187927246094 143.8047485351562 L 360.8935241699219 144.779541015625 C 375.2955932617188 148.4501037597656 388.8437194824219 152.238037109375 400.0733032226562 155.7337493896484 L 400.242431640625 155.7863922119141 L 400.4069519042969 155.7209014892578 L 435.8697509765625 141.5978240966797 C 448.1691589355469 146.6904144287109 459.0657043457031 152.8442687988281 466.5679321289062 158.9366760253906 C 470.4109497070312 162.0576171875 473.2816467285156 165.0838317871094 475.1002197265625 167.9313201904297 C 476.9676513671875 170.8552551269531 477.6792297363281 173.5253295898438 477.215087890625 175.8673248291016 C 476.5072326660156 179.4389038085938 473.0787963867188 182.2624664306641 467.0249328613281 184.2597503662109 C 460.2135925292969 186.5068969726562 450.1990051269531 187.6468963623047 437.259521484375 187.6481170654297 C 437.2525939941406 187.6481170654297 437.2448425292969 187.6481170654297 437.2379150390625 187.6481170654297 Z M 88.90233612060547 175.1851043701172 C 62.91212844848633 172.7053375244141 43.83564376831055 170.5509033203125 30.58308792114258 168.5988922119141 C 23.34508895874023 167.5327606201172 17.81073188781738 166.5149688720703 14.13365936279297 165.5737609863281 C 12.24351692199707 165.0898895263672 10.80773067474365 164.6177520751953 9.866302490234375 164.1703948974609 C 9.553112030029297 164.0215759277344 9.320838928222656 163.8883209228516 9.148626327514648 163.7724456787109 L 99.70253753662109 166.1787719726562 L 88.90233612060547 175.1851043701172 Z M 435.8763732910156 140.5187530517578 C 429.4784240722656 137.8867340087891 422.9001770019531 135.6093902587891 416.2886962890625 133.7367706298828 L 489.939208984375 118.9882202148438 L 435.8763732910156 140.5187530517578 Z M 140.8686981201172 131.8502349853516 C 140.7006378173828 131.6705932617188 140.5325622558594 131.4904022216797 140.3648071289062 131.3100280761719 C 140.655517578125 131.3879852294922 140.9460296630859 131.4658660888672 141.2363586425781 131.5436401367188 L 140.8686981201172 131.8502349853516 Z" stroke="none"/><path d="M 197.7721557617188 242.7428436279297 L 374.2449645996094 218.5448455810547 C 371.7463989257812 218.5836791992188 369.2617492675781 218.6031799316406 366.7964477539062 218.6031799316406 L 366.7890930175781 218.6031799316406 C 366.5067138671875 218.6031799316406 366.2313537597656 218.6029815673828 365.9486999511719 218.6024322509766 C 301.2938537597656 221.14599609375 231.2890930175781 223.7579040527344 230.7267303466797 223.7579040527344 L 230.3567352294922 221.8288269042969 L 268.0558166503906 206.8151245117188 C 260.1690063476562 204.7679290771484 252.4098968505859 202.4364013671875 244.9497375488281 199.8710327148438 C 236.4459228515625 196.9467315673828 228.1025238037109 193.6402587890625 220.1337280273438 190.0368499755859 L 197.7721557617188 242.7428436279297 M 365.9120483398438 216.6023559570312 C 377.1911926269531 216.1585998535156 387.8512268066406 215.7348937988281 397.5964050292969 215.3429565429688 L 451.392822265625 207.9663543701172 C 415.5161437988281 203.5210723876953 357.5011291503906 198.6456909179688 304.6212158203125 194.4057922363281 L 274.5628051757812 206.3765563964844 C 288.9656372070312 209.8227386474609 304.1601257324219 212.4277954101562 319.7805786132812 214.1274719238281 C 334.597900390625 215.7397003173828 350.1186828613281 216.5724029541016 365.9120483398438 216.6023559570312 M 437.5169982910156 213.7016296386719 C 459.0801391601562 212.7890014648438 471.0748901367188 212.2229614257812 477.39794921875 211.8756713867188 C 473.7198791503906 211.1447906494141 469.1112670898438 210.3803253173828 463.6085815429688 209.589111328125 C 454.7536010742188 211.1781005859375 446.0893859863281 212.5446472167969 437.5169982910156 213.7016296386719 M 153.1523895263672 212.4040679931641 C 153.5256042480469 212.2797393798828 154.3922424316406 211.8553771972656 156.1300201416016 210.413818359375 C 157.7902984619141 209.0365447998047 159.9799499511719 206.9548950195312 162.6382293701172 204.2265472412109 C 166.9328765869141 199.8187866210938 172.6295623779297 193.55029296875 180.4916534423828 184.5787048339844 C 176.6831665039062 184.2717742919922 172.9688415527344 183.9709167480469 169.4211730957031 183.6820526123047 L 132.3789978027344 191.0998077392578 L 152.8604431152344 211.6592559814453 L 153.1520233154297 211.9519653320312 L 153.1520233154297 212.3650360107422 C 153.1520233154297 212.3786163330078 153.1521453857422 212.3916168212891 153.1523895263672 212.4040679931641 M 56.34786224365234 204.2854461669922 L 128.3314666748047 189.8706970214844 L 117.8362731933594 179.3355560302734 C 107.5567626953125 178.4305114746094 97.98766326904297 177.556884765625 89.38263702392578 176.7376556396484 L 56.34786224365234 204.2854461669922 M 304.3150939941406 192.3748626708984 L 340.0617370605469 178.1387329101562 C 330.2197265625 176.3847961425781 319.8016662597656 174.4047241210938 309.0365905761719 172.2416687011719 L 288.1128540039062 171.6857147216797 C 280.195068359375 176.6541900634766 273.712890625 180.08935546875 267.7330017089844 182.4869689941406 C 260.2764587402344 185.4766845703125 253.4002380371094 186.9300384521484 246.7115936279297 186.9300384521484 C 244.0103759765625 186.9300384521484 241.2943725585938 186.6864013671875 238.6388702392578 186.2058258056641 C 235.8868713378906 185.7077484130859 233.1072235107422 184.9386749267578 230.3770904541016 183.9197540283203 C 229.5171356201172 183.5988464355469 227.3797607421875 182.7285308837891 223.8556365966797 181.2642669677734 L 221.9027404785156 185.8672637939453 C 229.9088439941406 186.4983825683594 238.0630798339844 187.1390686035156 245.9626617431641 187.7597503662109 C 265.2480163574219 189.2750549316406 285.1863403320312 190.8415832519531 304.3150939941406 192.3748626708984 M 437.2594604492188 187.1481170654297 C 450.1456604003906 187.1468963623047 460.1075134277344 186.0153198242188 466.8682250976562 183.7848968505859 C 469.91845703125 182.7786102294922 472.3094482421875 181.5461883544922 473.9747924804688 180.1219635009766 C 475.4827270507812 178.8323211669922 476.4078674316406 177.3681793212891 476.7245788574219 175.7700347900391 C 477.1628723144531 173.5588226318359 476.4745788574219 171.0120391845703 474.6788635253906 168.2003936767578 C 472.88916015625 165.3981170654297 470.0541687011719 162.4119720458984 466.2527160644531 159.3248291015625 C 458.8249816894531 153.2928466796875 448.0453491210938 147.1968994140625 435.865966796875 142.1374969482422 L 403.2035827636719 155.1453094482422 C 414.4107666015625 158.7030487060547 423.3146057128906 161.9822998046875 429.6955871582031 164.9034729003906 C 438.0902404785156 168.7463989257812 442.0000305175781 171.8746185302734 442.0000305175781 174.7481079101562 L 442.0000305175781 175.7750396728516 L 440.9734497070312 175.7477569580078 L 357.0697937011719 173.5181427001953 L 347.3569946289062 177.3862609863281 C 384.9982299804688 183.8642883300781 415.2266235351562 187.1481170654297 437.238525390625 187.1481170654297 L 437.2594604492188 187.1481170654297 M 209.3623199462891 184.8766784667969 C 205.1418914794922 182.7376861572266 200.9866638183594 180.4906768798828 196.9574890136719 178.1678771972656 L 186.9983215332031 180.1622161865234 C 186.16552734375 181.1205444335938 185.375244140625 182.0284423828125 184.6119384765625 182.9037780761719 C 192.1470336914062 183.50927734375 200.1543731689453 184.1475524902344 209.3623199462891 184.8766784667969 M 169.3040161132812 181.6658782958984 L 185.9360809326172 178.3352966308594 C 187.1125946044922 176.9807586669922 188.3834838867188 175.5145111083984 189.7960052490234 173.8822174072266 C 187.1801605224609 172.2577819824219 184.5768280029297 170.574462890625 182.039794921875 168.8669586181641 L 108.2777404785156 166.9068298339844 L 118.7383041381836 177.4072113037109 C 133.4006195068359 178.6960601806641 149.9475402832031 180.0896606445312 169.3040161132812 181.6658782958984 M 222.7903747558594 178.6543884277344 L 225.4145202636719 172.4693603515625 L 213.6520690917969 174.8248291015625 C 217.2311859130859 176.3299102783203 220.2922210693359 177.6126861572266 222.7903747558594 178.6543884277344 M 197.3052520751953 176.05859375 L 206.877197265625 174.141845703125 C 203.6029510498047 172.7613525390625 200.0046539306641 171.2419586181641 196.1352844238281 169.6060028076172 C 195.0332946777344 170.8821716308594 193.9362640380859 172.1522064208984 192.8484497070312 173.4104766845703 C 194.3190612792969 174.3046875 195.8128662109375 175.1922607421875 197.3052520751953 176.05859375 M 88.74231719970703 174.6675109863281 L 98.36471557617188 166.6433563232422 L 11.66771221160889 164.3395233154297 C 12.67756366729736 164.6778259277344 13.94910907745361 165.0282440185547 15.46301651000977 165.3851165771484 C 19.34101676940918 166.2992553710938 24.94623184204102 167.2859039306641 32.12301635742188 168.3176879882812 C 45.27458953857422 170.2083892822266 63.79738998413086 172.2857666015625 88.74231719970703 174.6675109863281 M 356.711669921875 171.5079345703125 L 397.2174987792969 155.3764190673828 C 386.6145324707031 152.1378021240234 374.1631774902344 148.6807098388672 360.9902954101562 145.3202056884766 L 313.668212890625 154.7965087890625 C 309.895263671875 157.2468719482422 306.1677551269531 159.7543487548828 302.5615844726562 162.1802520751953 C 299.9321594238281 163.9490051269531 297.4177856445312 165.6404113769531 294.9082336425781 167.2975616455078 C 299.771484375 168.3175964355469 304.5889587402344 169.3075408935547 309.2623291015625 170.2469787597656 L 356.711669921875 171.5079345703125 M 287.5605163574219 169.6703491210938 C 288.278076171875 169.2176971435547 289.0130004882812 168.7493133544922 289.7761840820312 168.2582244873047 C 283.0294799804688 166.8248901367188 276.0618896484375 165.3065338134766 269.0255432128906 163.7362213134766 L 245.0353546142578 168.5402984619141 L 287.5605163574219 169.6703491210938 M 227.2816772460938 168.0685119628906 L 232.6865081787109 155.3292541503906 C 226.1661224365234 153.7711334228516 219.4508666992188 152.14111328125 212.6977691650391 150.477294921875 C 207.8858337402344 155.9958038330078 202.9804992675781 161.6775054931641 198.232666015625 167.1768188476562 L 198.1316070556641 167.2938690185547 L 227.2816772460938 168.0685119628906 M 190.1694488525391 167.0822906494141 C 184.8214874267578 164.8189697265625 178.9528198242188 162.3326110839844 172.4422607421875 159.5718994140625 C 175.7865447998047 162.0924835205078 179.2096405029297 164.5384368896484 182.6754608154297 166.8831481933594 L 190.1694488525391 167.0822906494141 M 103.6361618041992 162.2475128173828 L 128.9730072021484 141.1190795898438 L 117.7093048095703 136.3341827392578 C 87.90128326416016 123.6712646484375 59.4193000793457 111.5717086791992 48.66408157348633 107.0661849975586 L 103.6361618041992 162.2475128173828 M 269.0484008789062 161.6920013427734 L 312.9002075195312 152.9106597900391 C 321.936279296875 147.0541839599609 329.3240356445312 142.7959594726562 336.4295043945312 139.36328125 C 315.8414611816406 134.6292266845703 298.7464904785156 131.3788909912109 294.3330078125 131.3788909912109 L 293.9432373046875 131.3788909912109 L 293.6562194824219 131.1151123046875 L 258.7475891113281 99.02423858642578 L 257.1974182128906 102.6779861450195 L 258.7710266113281 103.3451080322266 L 258.3807373046875 105.2658233642578 C 257.949951171875 105.2658233642578 257.1286010742188 105.4612121582031 255.6342620849609 106.3623123168945 L 235.4515991210938 153.9326324462891 C 246.9745178222656 156.6755218505859 258.2705078125 159.2844390869141 269.0484008789062 161.6920013427734 M 159.891357421875 152.0748901367188 C 153.2008514404297 146.3759155273438 146.7829284667969 140.2869720458984 140.7444305419922 133.9069671630859 L 132.7683258056641 140.5582733154297 C 140.6290588378906 143.897216796875 150.2239532470703 147.9721069335938 159.891357421875 152.0748901367188 M 211.9925537109375 148.2434539794922 C 222.3288421630859 136.4034576416016 230.0916748046875 127.7967910766602 236.3942260742188 121.1884002685547 C 244.4012298583984 112.7928771972656 250.1789855957031 107.4919204711914 254.0393829345703 105.0007247924805 L 254.5749206542969 103.7384796142578 L 203.0946044921875 81.91294860839844 L 144.4192199707031 130.8425140380859 C 167.9547119140625 137.1313018798828 190.6763458251953 142.982421875 211.9925537109375 148.2434539794922 M 361.0436096191406 143.2698974609375 L 409.6419372558594 133.5380249023438 C 406.1119995117188 132.6802825927734 402.6129150390625 131.9520111083984 399.1951599121094 131.3644714355469 C 393.6969604492188 130.419189453125 388.1761474609375 129.9398956298828 382.7861633300781 129.9398956298828 C 375.2901611328125 129.9398956298828 367.7102966308594 130.8719635009766 360.2572937011719 132.7102508544922 C 354.4133911132812 134.1516418457031 348.6051635742188 136.1325988769531 342.5808715820312 138.7426300048828 C 348.7388916015625 140.1951293945312 354.9356689453125 141.7145690917969 361.0436096191406 143.2698974609375 M 435.8792419433594 139.9793701171875 L 484.6456298828125 120.5581512451172 L 418.392822265625 133.8253021240234 C 424.2948303222656 135.5702056884766 430.1581420898438 137.6332855224609 435.8792419433594 139.9793701171875 M 196.1640930175781 243.9726867675781 L 219.6137390136719 188.7020874023438 C 236.5292816162109 196.4290771484375 253.9040985107422 202.2694854736328 271.2856750488281 206.6052703857422 L 230.7267303466797 222.7579040527344 C 231.1708984375 222.7579040527344 300.1090698242188 220.1918792724609 365.9303894042969 217.6024017333984 C 366.2194213867188 217.6029357910156 366.5006103515625 217.6031646728516 366.7890930175781 217.6031799316406 C 376.1817016601562 217.6034240722656 385.2701721191406 217.3251953125 393.9847717285156 216.8474884033203 L 196.1640930175781 243.9726867675781 Z M 365.9303894042969 217.6024017333984 C 336.2877197265625 217.5474853515625 303.7667236328125 214.7075653076172 271.2856750488281 206.6052703857422 L 304.4681701660156 193.3903350830078 C 367.7954711914062 198.4671325683594 425.6034545898438 203.4437255859375 458.9764404296875 207.9358215332031 L 397.6842041015625 216.3402252197266 C 387.3934020996094 216.7541046142578 376.7018432617188 217.1786346435547 365.9303894042969 217.6024017333984 Z M 393.9847717285156 216.8474884033203 L 397.6842041015625 216.3402252197266 C 400.9023742675781 216.2108001708984 404.0717163085938 216.0827941894531 407.2026062011719 215.9557647705078 C 402.9113159179688 216.2989349365234 398.4955444335938 216.6002197265625 393.9847717285156 216.8474884033203 Z M 407.2026062011719 215.9557647705078 C 429.8797607421875 214.142333984375 449.3090209960938 211.1427307128906 463.5908813476562 208.5763549804688 C 472.7218627929688 209.8859405517578 479.6606140136719 211.153076171875 483.9028625488281 212.3650360107422 C 485.015625 212.6828155517578 450.8048095703125 214.1866455078125 407.2026062011719 215.9557647705078 Z M 152.9221038818359 213.4552001953125 C 152.4164886474609 213.4559173583984 152.1520233154297 213.1057891845703 152.1520233154297 212.3650360107422 L 130.3552093505859 190.4852447509766 L 169.3625946044922 182.6739807128906 C 173.7166290283203 183.0285034179688 178.1278839111328 183.3853607177734 182.5532379150391 183.7414855957031 C 167.8061981201172 200.6153869628906 155.9805908203125 213.4508514404297 152.9221038818359 213.4552001953125 Z M 463.5908813476562 208.5763549804688 C 462.1085510253906 208.3637542724609 460.5727233886719 208.1506958007812 458.9764404296875 207.9358215332031 L 486.5983581542969 204.1483154296875 C 482.5952758789062 204.8664093017578 474.6371154785156 206.5913848876953 463.5908813476562 208.5763549804688 Z M 52.68358993530273 206.0390472412109 L 89.06243896484375 175.7026214599609 C 98.27449798583984 176.5809173583984 108.054931640625 177.4712219238281 118.2873077392578 178.3713989257812 L 130.3552093505859 190.4852447509766 L 52.68358993530273 206.0390472412109 Z M 486.5983581542969 204.1483154296875 C 487.8734741210938 203.9195709228516 488.7472229003906 203.79296875 489.1897888183594 203.79296875 L 486.5983581542969 204.1483154296875 Z M 304.4681701660156 193.3903350830078 C 276.9778747558594 191.1865081787109 248.4513397216797 188.9641265869141 220.4398040771484 186.7550354003906 L 223.3229064941406 179.9595947265625 C 227.2033081054688 181.5750122070312 229.7825622558594 182.6305389404297 230.7267303466797 182.9828948974609 C 236.1954040527344 185.0237426757812 241.503662109375 185.9300689697266 246.7116088867188 185.9300689697266 C 260.736328125 185.9300689697266 274.0431518554688 179.3574066162109 287.8370056152344 170.6780090332031 L 309.1494140625 171.2443542480469 C 321.4642333984375 173.7194671630859 332.9515075683594 175.8831176757812 343.7001342773438 177.7661895751953 L 304.4681701660156 193.3903350830078 Z M 219.6137390136719 188.7020874023438 C 217.891357421875 187.9152984619141 216.1737670898438 187.109375 214.4613189697266 186.2830963134766 C 216.4446411132812 186.4398193359375 218.4507446289062 186.5981750488281 220.4398040771484 186.7550354003906 L 219.6137390136719 188.7020874023438 Z M 437.2595520019531 188.1481323242188 C 416.1649169921875 188.150146484375 385.7750854492188 185.1373748779297 343.7001342773438 177.7661895751953 L 356.8907470703125 172.5130157470703 L 441.0000305175781 174.7481079101562 C 441.0000305175781 169.7136993408203 423.3375854492188 162.4521331787109 400.2219543457031 155.25634765625 L 435.8732299804688 141.0582122802734 C 478.2540588378906 158.5484008789062 503.3968200683594 188.141845703125 437.2595520019531 188.1481323242188 Z M 214.4613189697266 186.2830963134766 C 203.6966857910156 185.4324951171875 193.0434417724609 184.5856781005859 182.5532379150391 183.7414855957031 C 183.8373870849609 182.2721252441406 185.1426086425781 180.7734832763672 186.4672088623047 179.248779296875 L 197.1309661865234 177.1133422851562 C 202.8317565917969 180.4111633300781 208.6209564208984 183.4651031494141 214.4613189697266 186.2830963134766 Z M 169.3625946044922 182.6739807128906 C 151.5267486572266 181.2217407226562 134.3566436767578 179.7850799560547 118.2873077392578 178.3713989257812 L 105.8041610717773 165.8407287597656 L 182.3573150634766 167.8750305175781 C 185.3196868896484 169.8739624023438 188.3065490722656 171.7964477539062 191.3205108642578 173.6485748291016 C 189.6807403564453 175.5443878173828 188.0607452392578 177.4145202636719 186.4672088623047 179.248779296875 L 169.3625946044922 182.6739807128906 Z M 223.3229064941406 179.9595947265625 C 219.9048004150391 178.53662109375 215.4745483398438 176.6782836914062 210.2633056640625 174.4835815429688 L 227.0744934082031 171.1171417236328 L 223.3229064941406 179.9595947265625 Z M 197.1309661865234 177.1133422851562 C 195.1867218017578 175.9886322021484 193.24560546875 174.8315734863281 191.3205108642578 173.6485748291016 C 192.8160247802734 171.9195404052734 194.3309631347656 170.16552734375 195.854248046875 168.4013977050781 C 201.1057434082031 170.6220092773438 205.9540710449219 172.6687774658203 210.2633056640625 174.4835815429688 L 197.1309661865234 177.1133422851562 Z M 89.06243896484375 175.7026214599609 C 40.80020141601562 171.1011505126953 8.154730796813965 166.8321685791016 8.154730796813965 163.2458190917969 L 101.0404281616211 165.7141418457031 L 89.06243896484375 175.7026214599609 Z M 356.8907470703125 172.5130157470703 L 309.1494140625 171.2443542480469 C 303.7004089355469 170.1491851806641 298.1171569824219 168.9986267089844 292.3501892089844 167.7811737060547 C 299.1341857910156 163.3519592285156 306.0644836425781 158.5377807617188 313.2840576171875 153.8536071777344 L 361.0169982910156 144.2950592041016 C 374.4099731445312 147.7084350585938 388.0682373046875 151.4729614257812 400.2219543457031 155.25634765625 L 356.8907470703125 172.5130157470703 Z M 227.0744934082031 171.1171417236328 L 227.9361419677734 169.0862274169922 L 236.1291198730469 169.3039398193359 L 227.0744934082031 171.1171417236328 Z M 287.8370056152344 170.6780090332031 L 236.1291198730469 169.3039398193359 L 269.0369567871094 162.714111328125 C 277.0848693847656 164.5110626220703 284.8531188964844 166.1984710693359 292.3501892089844 167.7811737060547 C 290.839599609375 168.7674255371094 289.3345031738281 169.7357482910156 287.8370056152344 170.6780090332031 Z M 227.9361419677734 169.0862274169922 L 195.9958038330078 168.2374572753906 C 201.3807373046875 162.0009155273438 206.9060211181641 155.5944671630859 212.3450469970703 149.3603668212891 C 219.7861022949219 151.1952972412109 227.0027160644531 152.9459228515625 234.0689697265625 154.6312103271484 L 227.9361419677734 169.0862274169922 Z M 195.854248046875 168.4013977050781 C 195.7118225097656 168.3411712646484 195.5740661621094 168.2829284667969 195.4310607910156 168.2224426269531 L 195.9958038330078 168.2374572753906 C 195.9477996826172 168.2930450439453 195.9022216796875 168.3458251953125 195.854248046875 168.4013977050781 Z M 195.4310607910156 168.2224426269531 L 182.3573150634766 167.8750305175781 C 176.7322235107422 164.0793609619141 171.2104187011719 160.0191040039062 165.8010559082031 155.6688232421875 C 176.4198150634766 160.1737976074219 186.5018920898438 164.4464111328125 195.4310607910156 168.2224426269531 Z M 105.8041610717773 165.8407287597656 L 101.0404281616211 165.7141418457031 L 103.5736312866211 163.6016998291016 L 105.8041610717773 165.8407287597656 Z M 103.5736312866211 163.6016998291016 L 44.46280288696289 104.2658233642578 C 44.46280288696289 104.2652053833008 44.46354675292969 104.264892578125 44.4649772644043 104.264892578125 C 44.81058502197266 104.264892578125 86.80369567871094 122.1200637817383 130.8706359863281 140.8386535644531 L 103.5736312866211 163.6016998291016 Z M 269.0369567871094 162.714111328125 C 257.9349975585938 160.2352447509766 246.2537384033203 157.5372314453125 234.0689697265625 154.6312103271484 L 254.8384704589844 105.6776962280273 C 256.3085327148438 104.7577972412109 257.5026245117188 104.2658233642578 258.3807373046875 104.2658233642578 L 255.8861846923828 103.2082443237305 L 258.3807373046875 97.32861328125 L 294.3330078125 130.3788909912109 C 299.0033874511719 130.3788909912109 317.2993774414062 133.8766479492188 339.4635620117188 139.0390472412109 C 330.2179260253906 143.2854309082031 321.5613403320312 148.4831695556641 313.2840576171875 153.8536071777344 L 269.0369567871094 162.714111328125 Z M 165.8010559082031 155.6688232421875 C 154.5126495361328 150.8797607421875 142.6144409179688 145.8271484375 130.8706359863281 140.8386535644531 L 140.8265686035156 132.536376953125 C 148.7984313964844 141.0247650146484 157.1477203369141 148.7097015380859 165.8010559082031 155.6688232421875 Z M 212.3450469970703 149.3603668212891 C 190.6419982910156 144.0084991455078 167.318603515625 138.0082702636719 142.2970733642578 131.3101196289062 L 202.9229431152344 80.75403594970703 L 255.8861846923828 103.2082443237305 L 254.8384704589844 105.6776962280273 C 246.6458282470703 110.8042373657227 229.9408416748047 129.1924591064453 212.3450469970703 149.3603668212891 Z M 361.0169982910156 144.2950592041016 C 353.6531982421875 142.4182891845703 346.370361328125 140.6477508544922 339.4635620117188 139.0390472412109 C 352.5281066894531 133.0386810302734 366.7695007324219 128.9398956298828 382.7861633300781 128.9398956298828 C 388.1102905273438 128.9398956298828 393.62646484375 129.3924102783203 399.3645935058594 130.3788909912109 C 404.2869567871094 131.2251434326172 409.2377319335938 132.3348541259766 414.1325073242188 133.6586303710938 L 361.0169982910156 144.2950592041016 Z M 435.8732299804688 141.0582122802734 C 428.9769592285156 138.2121887207031 421.6212158203125 135.6839447021484 414.1325073242188 133.6586303710938 L 495.2327270507812 117.4182510375977 L 435.8732299804688 141.0582122802734 Z M 140.8265686035156 132.536376953125 C 140.1590881347656 131.8256378173828 139.486328125 131.1008605957031 138.8242340087891 130.3788909912109 C 139.9863586425781 130.6910247802734 141.1422271728516 131.0009765625 142.2970733642578 131.3101196289062 L 140.8265686035156 132.536376953125 Z" stroke="none" fill="#707070"/></g><g transform="matrix(1, 0, 0, 1, 150.15, 257.75)" filter="url(#a)"><text transform="translate(101 56.07) rotate(2)" font-size="32" font-family="ChalkboardSE-Regular, Chalkboard SE"><tspan x="0" y="36">CORONA UPDATES</tspan></text></g><g transform="matrix(1, 0, 0, 1, 150.15, 257.75)" filter="url(#c)"><path d="M18,3A10.492,10.492,0,0,0,7.5,13.5C7.5,21.375,18,33,18,33S28.5,21.375,28.5,13.5A10.492,10.492,0,0,0,18,3Zm0,14.25a3.75,3.75,0,1,1,3.75-3.75A3.751,3.751,0,0,1,18,17.25Z" transform="translate(304.85 103.25)" fill="#fff"/></g><g transform="matrix(1, 0, 0, 1, 150.15, 257.75)" filter="url(#e)"><path d="M18,3A10.492,10.492,0,0,0,7.5,13.5C7.5,21.375,18,33,18,33S28.5,21.375,28.5,13.5A10.492,10.492,0,0,0,18,3Zm0,14.25a3.75,3.75,0,1,1,3.75-3.75A3.751,3.751,0,0,1,18,17.25Z" transform="translate(346.05 40.25)" fill="#fff"/></g><g transform="matrix(1, 0, 0, 1, 150.15, 257.75)" filter="url(#g)"><path d="M18,3A10.492,10.492,0,0,0,7.5,13.5C7.5,21.375,18,33,18,33S28.5,21.375,28.5,13.5A10.492,10.492,0,0,0,18,3Zm0,14.25a3.75,3.75,0,1,1,3.75-3.75A3.751,3.751,0,0,1,18,17.25Z" transform="translate(249.25 29.25)" fill="snow"/></g><g transform="matrix(1, 0, 0, 1, 150.15, 257.75)" filter="url(#i)"><path d="M18,3A10.492,10.492,0,0,0,7.5,13.5C7.5,21.375,18,33,18,33S28.5,21.375,28.5,13.5A10.492,10.492,0,0,0,18,3Zm0,14.25a3.75,3.75,0,1,1,3.75-3.75A3.751,3.751,0,0,1,18,17.25Z" transform="translate(175.45 3.25)" fill="#fff"/></g><g transform="matrix(1, 0, 0, 1, 150.15, 257.75)" filter="url(#k)"><path d="M22.5,16.5v-9L18,3,13.5,7.5v3h-9v21h27v-15Zm-12,12h-3v-3h3Zm0-6h-3v-3h3Zm0-6h-3v-3h3Zm9,12h-3v-3h3Zm0-6h-3v-3h3Zm0-6h-3v-3h3Zm0-6h-3v-3h3Zm9,18h-3v-3h3Zm0-6h-3v-3h3Z" transform="translate(224.85 97.25)" fill="#fff"/></g><path d="M22.5,16.5v-9L18,3,13.5,7.5v3h-9v21h27v-15Zm-12,12h-3v-3h3Zm0-6h-3v-3h3Zm0-6h-3v-3h3Zm9,12h-3v-3h3Zm0-6h-3v-3h3Zm0-6h-3v-3h3Zm0-6h-3v-3h3Zm9,18h-3v-3h3Zm0-6h-3v-3h3Z" transform="translate(291.4 282)"/></g></svg>